<svg width="30" height="18" viewBox="0 0 30 18" fill="none" xmlns="http://www.w3.org/2000/svg">
<path d="M18.6947 16.0753H10.8203V1.92383H18.6949L18.6947 16.0753Z" fill="#FF5F00"/>
<path d="M11.3185 9C11.3185 6.12938 12.6625 3.57223 14.7556 1.92428C13.1713 0.675038 11.2117 -0.00297132 9.19414 9.78876e-06C4.2241 9.78876e-06 0.195312 4.02938 0.195312 9C0.195312 13.9706 4.2241 18 9.19414 18C11.2118 18.003 13.1714 17.325 14.7557 16.0757C12.6628 14.4281 11.3185 11.8708 11.3185 9Z" fill="#EB001B"/>
<path d="M29.3189 9C29.3189 13.9706 25.2901 18 20.3201 18C18.3023 18.003 16.3425 17.325 14.7578 16.0757C16.8514 14.4278 18.1955 11.8708 18.1955 9C18.1955 6.12924 16.8514 3.57223 14.7578 1.92428C16.3424 0.675075 18.3022 -0.00291907 20.32 9.44732e-06C25.29 9.44732e-06 29.3188 4.02938 29.3188 9" fill="#F79E1B"/>
</svg>
