<svg width="74" height="18" viewBox="0 0 74 18" fill="none" xmlns="http://www.w3.org/2000/svg">
<path d="M27.5588 4.02539H23.4796C23.3445 4.02531 23.2139 4.07345 23.1112 4.16116C23.0085 4.24886 22.9405 4.37036 22.9195 4.50375L21.2697 14.9639C21.2621 15.0124 21.2651 15.062 21.2786 15.1093C21.292 15.1565 21.3155 15.2003 21.3475 15.2376C21.3794 15.2749 21.4191 15.3049 21.4638 15.3254C21.5084 15.3459 21.557 15.3564 21.6061 15.3564H23.5535C23.6887 15.3564 23.8194 15.3082 23.9221 15.2204C24.0248 15.1325 24.0927 15.0109 24.1136 14.8774L24.5586 12.0561C24.5795 11.9227 24.6473 11.8012 24.7499 11.7134C24.8525 11.6256 24.983 11.5773 25.1181 11.5772H26.4094C29.0965 11.5772 30.6473 10.2769 31.0523 7.70019C31.2348 6.57288 31.06 5.68713 30.5321 5.06681C29.9524 4.38565 28.9241 4.02539 27.5588 4.02539ZM28.0294 7.84572C27.8063 9.30944 26.688 9.30944 25.6066 9.30944H24.991L25.4229 6.57586C25.4355 6.49588 25.4763 6.42305 25.5378 6.37045C25.5994 6.31786 25.6777 6.28896 25.7587 6.28896H26.0408C26.7774 6.28896 27.4723 6.28896 27.8314 6.70887C28.0455 6.95938 28.1111 7.33157 28.0294 7.84572ZM39.7522 7.7986H37.7988C37.7179 7.7986 37.6396 7.8275 37.578 7.8801C37.5164 7.93269 37.4757 8.00553 37.463 8.0855L37.3765 8.63186L37.2399 8.43383C36.8171 7.82008 35.8741 7.61489 34.9328 7.61489C32.7742 7.61489 30.9306 9.24979 30.5715 11.5432C30.3848 12.6872 30.6502 13.7811 31.2992 14.544C31.8945 15.2454 32.7462 15.5377 33.7596 15.5377C35.4989 15.5377 36.4634 14.4193 36.4634 14.4193L36.3763 14.9621C36.3685 15.0106 36.3714 15.0603 36.3846 15.1076C36.3979 15.1549 36.4213 15.1988 36.4531 15.2362C36.485 15.2736 36.5246 15.3037 36.5692 15.3243C36.6138 15.345 36.6623 15.3557 36.7115 15.3558H38.471C38.6062 15.3558 38.7369 15.3076 38.8396 15.2198C38.9423 15.1319 39.0102 15.0103 39.0311 14.8768L40.0869 8.19107C40.0946 8.14265 40.0918 8.09312 40.0785 8.04591C40.0653 7.99869 40.042 7.95491 40.0102 7.91759C39.9783 7.88027 39.9388 7.85031 39.8943 7.82976C39.8497 7.80922 39.8013 7.79859 39.7522 7.7986ZM37.0294 11.6004C36.8409 12.7164 35.9552 13.4656 34.8255 13.4656C34.2582 13.4656 33.8049 13.2837 33.5139 12.9389C33.2252 12.5965 33.1154 12.1092 33.2073 11.5664C33.3832 10.46 34.2839 9.6864 35.3963 9.6864C35.951 9.6864 36.4019 9.87071 36.699 10.2184C36.9966 10.5698 37.1147 11.0601 37.0294 11.6004ZM50.1557 7.7986H48.1928C48.1002 7.79875 48.009 7.82148 47.9272 7.86482C47.8454 7.90817 47.7755 7.97081 47.7233 8.04733L45.016 12.0353L43.8684 8.203C43.8332 8.08612 43.7613 7.98368 43.6633 7.91085C43.5653 7.83802 43.4465 7.79866 43.3244 7.7986H41.3955C41.3413 7.79846 41.2879 7.81125 41.2397 7.83591C41.1915 7.86057 41.1499 7.89639 41.1184 7.94039C41.0868 7.98438 41.0662 8.03528 41.0583 8.08884C41.0503 8.1424 41.0553 8.19709 41.0728 8.24834L43.235 14.5935L41.2022 17.4631C41.1661 17.5139 41.1447 17.5738 41.1403 17.636C41.1359 17.6983 41.1488 17.7605 41.1774 17.816C41.206 17.8714 41.2494 17.9179 41.3027 17.9503C41.356 17.9828 41.4172 17.9999 41.4796 17.9999H43.4402C43.5317 18 43.6219 17.9779 43.703 17.9355C43.7842 17.8932 43.8538 17.8317 43.906 17.7565L50.4349 8.33244C50.4702 8.28145 50.491 8.22175 50.4949 8.15981C50.4987 8.09786 50.4856 8.03604 50.4568 7.98105C50.4281 7.92605 50.3848 7.87997 50.3317 7.84781C50.2786 7.81565 50.2178 7.79863 50.1557 7.7986Z" fill="#253B80"/>
<path d="M56.6604 4.02599H52.5807C52.4457 4.02604 52.3152 4.07426 52.2127 4.16195C52.1101 4.24964 52.0422 4.37106 52.0212 4.50435L50.3714 14.9645C50.3637 15.0129 50.3666 15.0625 50.3799 15.1097C50.3933 15.1569 50.4166 15.2007 50.4485 15.238C50.4804 15.2753 50.5199 15.3052 50.5645 15.3258C50.609 15.3463 50.6575 15.357 50.7066 15.357H52.8002C52.8946 15.3568 52.9859 15.323 53.0576 15.2615C53.1294 15.2001 53.1768 15.1151 53.1914 15.0217L53.6597 12.0567C53.6805 11.9233 53.7484 11.8018 53.851 11.714C53.9535 11.6262 54.0841 11.5779 54.2191 11.5778H55.5099C58.1975 11.5778 59.7477 10.2775 60.1533 7.70078C60.3364 6.57347 60.1605 5.68773 59.6326 5.06741C59.0535 4.38625 58.0257 4.02599 56.6604 4.02599ZM57.1311 7.84632C56.9086 9.31004 55.7902 9.31004 54.7082 9.31004H54.0933L54.5257 6.57645C54.5381 6.49648 54.5787 6.42358 54.6402 6.37096C54.7017 6.31833 54.78 6.28946 54.8609 6.28956H55.1431C55.8791 6.28956 56.5746 6.28956 56.9336 6.70947C57.1478 6.95998 57.2128 7.33217 57.1311 7.84632ZM68.8533 7.7992H66.9011C66.8201 7.79898 66.7418 7.82781 66.6803 7.88046C66.6187 7.9331 66.5782 8.00607 66.5659 8.0861L66.4794 8.63246L66.3422 8.43443C65.9193 7.82067 64.9769 7.61549 64.0357 7.61549C61.8771 7.61549 60.034 9.25039 59.675 11.5438C59.4889 12.6878 59.7531 13.7817 60.4021 14.5446C60.9985 15.246 61.8491 15.5383 62.8625 15.5383C64.6017 15.5383 65.5662 14.4199 65.5662 14.4199L65.4791 14.9627C65.4714 15.0113 65.4742 15.0611 65.4876 15.1085C65.5009 15.1559 65.5244 15.1998 65.5564 15.2373C65.5884 15.2747 65.6281 15.3047 65.6729 15.3253C65.7176 15.3459 65.7663 15.3565 65.8155 15.3564H67.5745C67.7095 15.3563 67.8401 15.308 67.9427 15.2202C68.0452 15.1324 68.1131 15.0108 68.134 14.8774L69.1903 8.19167C69.1978 8.1431 69.1947 8.09348 69.1812 8.04622C69.1677 7.99897 69.1441 7.95519 69.1121 7.91791C69.0801 7.88062 69.0404 7.8507 68.9957 7.83021C68.951 7.80972 68.9025 7.79914 68.8533 7.7992ZM66.1305 11.601C65.9432 12.717 65.0562 13.4662 63.9265 13.4662C63.3605 13.4662 62.906 13.2843 62.6149 12.9395C62.3262 12.5971 62.2177 12.1098 62.3083 11.567C62.4855 10.4606 63.385 9.687 64.4974 9.687C65.0521 9.687 65.503 9.87131 65.8 10.219C66.0989 10.5704 66.217 11.0606 66.1305 11.601ZM71.1562 4.31288L69.482 14.9645C69.4743 15.0129 69.4772 15.0625 69.4905 15.1097C69.5039 15.1569 69.5273 15.2007 69.5591 15.238C69.591 15.2753 69.6306 15.3052 69.6751 15.3258C69.7197 15.3463 69.7681 15.357 69.8172 15.357H71.5004C71.7801 15.357 72.0175 15.1542 72.0605 14.878L73.7115 4.41846C73.7192 4.36997 73.7162 4.32041 73.7029 4.27316C73.6896 4.22591 73.6662 4.18211 73.6344 4.14476C73.6025 4.10741 73.563 4.0774 73.5184 4.0568C73.4738 4.03619 73.4254 4.02548 73.3763 4.02539H71.4915C71.4105 4.02568 71.3324 4.05477 71.2709 4.10745C71.2095 4.16013 71.1689 4.23295 71.1562 4.31288Z" fill="#179BD7"/>
<path d="M4.33385 17.3898L4.6458 15.4083L3.95093 15.3922H0.632812L2.93873 0.771182C2.9456 0.726508 2.96829 0.685789 3.00267 0.656446C3.03704 0.627104 3.08082 0.611092 3.12602 0.611331H8.72083C10.5782 0.611331 11.86 0.997837 12.5292 1.76071C12.843 2.11859 13.0428 2.49257 13.1394 2.90413C13.2408 3.33597 13.2426 3.8519 13.1436 4.48117L13.1364 4.5271V4.93031L13.4502 5.10805C13.6897 5.22939 13.905 5.39354 14.0854 5.59238C14.3538 5.89836 14.5274 6.28725 14.6007 6.74832C14.6765 7.22251 14.6514 7.78676 14.5274 8.42557C14.3842 9.16041 14.1528 9.80041 13.8403 10.3241C13.5645 10.7932 13.1937 11.1996 12.7517 11.517C12.3366 11.8117 11.8433 12.0353 11.2856 12.1785C10.7452 12.3193 10.1291 12.3902 9.45328 12.3902H9.01786C8.70651 12.3902 8.4041 12.5024 8.16671 12.7034C7.92966 12.9065 7.7724 13.1872 7.72295 13.4955L7.69014 13.6738L7.13901 17.1661L7.11396 17.2943C7.1074 17.3349 7.09607 17.3552 7.07936 17.3689C7.06319 17.3821 7.043 17.3895 7.0221 17.3898H4.33385Z" fill="#253B80"/>
<path d="M13.7436 4.57324C13.7269 4.68001 13.7078 4.78916 13.6864 4.9013C12.9485 8.68942 10.4243 9.99806 7.20045 9.99806H5.55898C5.16472 9.99806 4.83249 10.2844 4.77106 10.6732L3.93065 16.0032L3.69266 17.5141C3.68318 17.574 3.6868 17.6353 3.70327 17.6937C3.71974 17.7521 3.74867 17.8062 3.78806 17.8523C3.82746 17.8985 3.87639 17.9355 3.93148 17.961C3.98658 17.9864 4.04652 17.9996 4.1072 17.9996H7.01852C7.36328 17.9996 7.65614 17.7491 7.71042 17.4091L7.73905 17.2612L8.2872 13.7826L8.32239 13.5917C8.37607 13.2506 8.66953 13 9.01428 13H9.4497C12.2704 13 14.4785 11.8548 15.1238 8.5409C15.3934 7.15652 15.2539 6.00057 14.5405 5.1876C14.3144 4.93611 14.0444 4.72792 13.7436 4.57324Z" fill="#179BD7"/>
<path d="M12.9742 4.26504C12.7386 4.19689 12.4989 4.1437 12.2566 4.10579C11.7779 4.03221 11.294 3.9969 10.8096 4.00021H6.42444C6.25756 4.00008 6.09613 4.05966 5.96934 4.16818C5.84256 4.2767 5.75877 4.427 5.73314 4.5919L4.80028 10.5004L4.77344 10.6728C4.8025 10.4847 4.89792 10.3133 5.04244 10.1894C5.18696 10.0656 5.37104 9.99753 5.56136 9.99763H7.20282C10.4267 9.99763 12.9509 8.6884 13.6887 4.90087C13.7108 4.78873 13.7293 4.67958 13.746 4.57282C13.5513 4.47072 13.3484 4.38512 13.1394 4.31693C13.0846 4.29875 13.0295 4.28145 12.9742 4.26504Z" fill="#222D65"/>
<path d="M5.73432 4.59215C5.75974 4.4272 5.84347 4.27683 5.97032 4.16837C6.09717 4.05991 6.25872 4.00054 6.42562 4.00106H10.8108C11.3303 4.00106 11.8152 4.03506 12.2578 4.10664C12.5573 4.1537 12.8527 4.2241 13.1412 4.31719C13.3589 4.38936 13.5611 4.47465 13.7478 4.57307C13.9673 3.17317 13.746 2.22003 12.9891 1.35695C12.1546 0.406787 10.6486 0 8.7214 0H3.1266C2.73293 0 2.39712 0.286301 2.33628 0.67579L0.00591076 15.4472C-0.00494373 15.5157 -0.00081397 15.5858 0.018016 15.6527C0.0368459 15.7195 0.0699291 15.7815 0.11499 15.8343C0.160051 15.8871 0.21602 15.9296 0.279047 15.9587C0.342074 15.9878 0.410664 16.003 0.480097 16.0031H3.9342L4.80146 10.5007L5.73432 4.59215Z" fill="#253B80"/>
</svg>
