<svg width="57" height="18" viewBox="0 0 57 18" fill="none" xmlns="http://www.w3.org/2000/svg">
<path d="M24.7713 17.7H20.244L23.0735 0.310721H27.6013L24.7713 17.7ZM16.4353 0.310721L12.1192 12.2712L11.6084 9.69563L11.6089 9.69656L10.0855 1.87642C10.0855 1.87642 9.90132 0.310721 7.93791 0.310721H0.802478L0.71875 0.605163C0.71875 0.605163 2.90078 1.05915 5.45447 2.59276L9.38779 17.7004H14.1049L21.3078 0.310721H16.4353ZM52.0451 17.7H56.2021L52.5777 0.310257H48.9383C47.2577 0.310257 46.8484 1.60617 46.8484 1.60617L40.0962 17.7H44.8157L45.7594 15.117H51.5148L52.0451 17.7ZM47.0633 11.5488L49.4421 5.04132L50.7803 11.5488H47.0633ZM40.4502 4.49244L41.0963 0.758197C41.0963 0.758197 39.1027 0 37.0244 0C34.7777 0 29.4424 0.981936 29.4424 5.75672C29.4424 10.2492 35.7043 10.305 35.7043 12.6647C35.7043 15.0244 30.0875 14.6016 28.2339 13.1136L27.5608 17.0181C27.5608 17.0181 29.5824 18 32.671 18C35.7605 18 40.4214 16.4003 40.4214 12.0465C40.4214 7.52523 34.1032 7.10427 34.1032 5.13854C34.1037 3.17234 38.5128 3.42492 40.4502 4.49244Z" fill="#2566AF"/>
<path d="M11.6089 9.69639L10.0855 1.87625C10.0855 1.87625 9.90132 0.310547 7.93791 0.310547H0.802478L0.71875 0.604988C0.71875 0.604988 4.14832 1.31574 7.43788 3.97874C10.5832 6.52405 11.6089 9.69639 11.6089 9.69639Z" fill="#E6A540"/>
</svg>
