<svg width="85" height="19" viewBox="0 0 85 19" fill="none" xmlns="http://www.w3.org/2000/svg">
<path d="M0.925257 0.922852H12.4637V3.07085H7.92053V15.1795H5.43036V3.07085H0.90625L0.925257 0.922852ZM11.9694 4.85769H14.0984V6.85362H14.1364C14.2125 6.56849 14.3455 6.30237 14.5356 6.03624C14.7257 5.77012 14.9538 5.523 15.239 5.3139C15.5051 5.08579 15.8092 4.91472 16.1514 4.78165C16.4745 4.64859 16.8167 4.57255 17.1588 4.57255C17.425 4.57255 17.6151 4.59156 17.7101 4.59156C17.8052 4.61057 17.9192 4.62958 18.0142 4.62958V6.81561C17.8622 6.77759 17.6911 6.75858 17.52 6.73957C17.3489 6.72056 17.1969 6.70155 17.0258 6.70155C16.6456 6.70155 16.2844 6.77758 15.9423 6.92966C15.6001 7.08173 15.315 7.30983 15.0489 7.59497C14.8017 7.89911 14.5926 8.26028 14.4406 8.69749C14.2885 9.13469 14.2125 9.64793 14.2125 10.2182V15.1225H11.9314L11.9694 4.85769ZM28.4691 15.1795H26.2261V13.7348H26.1881C25.9029 14.2671 25.4847 14.6663 24.9335 14.9894C24.3822 15.3126 23.812 15.4647 23.2417 15.4647C21.8921 15.4647 20.9036 15.1415 20.2953 14.4572C19.687 13.7919 19.3829 12.7654 19.3829 11.4158V4.85769H21.664V11.1877C21.664 12.1001 21.835 12.7464 22.1962 13.1075C22.5384 13.4877 23.0326 13.6778 23.6599 13.6778C24.1351 13.6778 24.5343 13.6018 24.8574 13.4497C25.1806 13.2976 25.4467 13.1075 25.6368 12.8604C25.8459 12.6133 25.979 12.3092 26.074 11.967C26.1691 11.6249 26.2071 11.2447 26.2071 10.8455V4.85769H28.4881V15.1795H28.4691ZM32.347 11.872C32.423 12.5373 32.6701 12.9935 33.1073 13.2786C33.5445 13.5448 34.0768 13.6778 34.685 13.6778C34.8941 13.6778 35.1413 13.6588 35.4074 13.6208C35.6735 13.5828 35.9396 13.5257 36.1677 13.4307C36.4149 13.3357 36.6049 13.2026 36.757 13.0125C36.9091 12.8224 36.9851 12.5943 36.9661 12.3092C36.9471 12.024 36.8521 11.7769 36.643 11.5868C36.4339 11.3967 36.1867 11.2637 35.8826 11.1306C35.5785 11.0166 35.2173 10.9215 34.8181 10.8455C34.4189 10.7695 34.0197 10.6744 33.6015 10.5794C33.1833 10.4843 32.7651 10.3703 32.366 10.2372C31.9668 10.1041 31.6246 9.93306 31.3015 9.68594C30.9973 9.45784 30.7312 9.17271 30.5601 8.81154C30.37 8.45037 30.275 8.03217 30.275 7.49992C30.275 6.92966 30.408 6.47344 30.6932 6.09327C30.9593 5.71309 31.3205 5.40895 31.7387 5.18084C32.1569 4.95273 32.6321 4.78165 33.1453 4.68661C33.6586 4.59156 34.1528 4.55354 34.609 4.55354C35.1413 4.55354 35.6545 4.61058 36.1297 4.72463C36.6049 4.83868 37.0612 5.00976 37.4413 5.27589C37.8405 5.523 38.1637 5.86516 38.4108 6.26434C38.6769 6.66353 38.829 7.15776 38.905 7.72803H36.5289C36.4149 7.17677 36.1677 6.81561 35.7876 6.62552C35.3884 6.43543 34.9512 6.34038 34.4379 6.34038C34.2859 6.34038 34.0768 6.35939 33.8677 6.3784C33.6396 6.41642 33.4495 6.45444 33.2404 6.53047C33.0503 6.60651 32.8792 6.72056 32.7461 6.85362C32.6131 6.98668 32.537 7.17677 32.537 7.40488C32.537 7.69001 32.6321 7.89911 32.8222 8.07019C33.0123 8.24127 33.2594 8.37433 33.5825 8.5074C33.8867 8.62145 34.2478 8.71649 34.647 8.79253C35.0462 8.86857 35.4644 8.96361 35.8826 9.05865C36.3008 9.1537 36.7 9.26775 37.0992 9.40081C37.4984 9.53387 37.8595 9.70496 38.1637 9.95207C38.4678 10.1802 38.7339 10.4653 38.924 10.8075C39.1141 11.1496 39.2092 11.5868 39.2092 12.0811C39.2092 12.6894 39.0761 13.2026 38.791 13.6398C38.5058 14.058 38.1447 14.4192 37.7075 14.6853C37.2703 14.9514 36.757 15.1415 36.2248 15.2746C35.6735 15.3886 35.1413 15.4647 34.609 15.4647C33.9627 15.4647 33.3544 15.3886 32.8032 15.2365C32.2519 15.0845 31.7577 14.8564 31.3585 14.5712C30.9593 14.2671 30.6361 13.9059 30.408 13.4497C30.1799 13.0125 30.0469 12.4803 30.0279 11.853H32.3279V11.872H32.347ZM39.8555 4.85769H41.5853V1.74023H43.8663V4.83868H45.9193V6.53047H43.8663V12.0431C43.8663 12.2902 43.8853 12.4803 43.9044 12.6703C43.9234 12.8414 43.9804 12.9935 44.0374 13.1075C44.1135 13.2216 44.2275 13.3166 44.3606 13.3737C44.5126 13.4307 44.7027 13.4687 44.9688 13.4687C45.1209 13.4687 45.292 13.4687 45.4441 13.4497C45.5961 13.4307 45.7672 13.4117 45.9193 13.3737V15.1415C45.6722 15.1795 45.4251 15.1985 45.1779 15.2175C44.9308 15.2555 44.7027 15.2556 44.4366 15.2556C43.8283 15.2556 43.3531 15.1985 42.9919 15.0845C42.6308 14.9704 42.3456 14.7993 42.1365 14.5902C41.9274 14.3621 41.7944 14.096 41.7183 13.7729C41.6423 13.4497 41.6043 13.0505 41.5853 12.6323V6.54948H39.8555V4.81967V4.85769ZM47.516 4.85769H49.664V6.26434H49.7021C50.0252 5.65606 50.4624 5.23787 51.0327 4.97174C51.603 4.70562 52.2112 4.57255 52.8956 4.57255C53.7129 4.57255 54.4163 4.70562 55.0246 5.00976C55.6328 5.2949 56.1271 5.67507 56.5263 6.18831C56.9254 6.68254 57.2296 7.27182 57.4197 7.93713C57.6098 8.60244 57.7238 9.32478 57.7238 10.0661C57.7238 10.7695 57.6288 11.4348 57.4577 12.0811C57.2676 12.7274 57.0015 13.3166 56.6403 13.8109C56.2791 14.3051 55.8229 14.7043 55.2527 15.0084C54.6824 15.3126 54.0361 15.4647 53.2757 15.4647C52.9526 15.4647 52.6104 15.4266 52.2873 15.3696C51.9641 15.3126 51.641 15.2175 51.3368 15.0845C51.0327 14.9514 50.7476 14.7803 50.5004 14.5712C50.2343 14.3621 50.0252 14.115 49.8541 13.8489H49.8161V19.0003H47.535V4.85769H47.516ZM55.4808 10.0281C55.4808 9.57189 55.4237 9.11568 55.2907 8.67848C55.1766 8.24127 54.9865 7.86109 54.7394 7.51893C54.4923 7.17677 54.1882 6.91065 53.846 6.70155C53.4848 6.49245 53.0666 6.39741 52.6104 6.39741C51.66 6.39741 50.9376 6.72056 50.4434 7.38587C49.9682 8.05118 49.7211 8.9446 49.7211 10.0471C49.7211 10.5794 49.7781 11.0546 49.9112 11.4918C50.0442 11.929 50.2153 12.3092 50.4814 12.6323C50.7285 12.9555 51.0327 13.2026 51.3939 13.3927C51.755 13.5828 52.1542 13.6778 52.6294 13.6778C53.1617 13.6778 53.5799 13.5638 53.941 13.3547C54.3022 13.1456 54.5873 12.8604 54.8345 12.5373C55.0626 12.1951 55.2337 11.8149 55.3287 11.3777C55.4237 10.9215 55.4808 10.4843 55.4808 10.0281ZM59.4916 0.922852H61.7727V3.07085H59.4916V0.922852ZM59.4916 4.85769H61.7727V15.1795H59.4916V4.85769ZM63.8067 0.922852H66.0877V15.1795H63.8067V0.922852ZM73.045 15.4647C72.2276 15.4647 71.4863 15.3316 70.84 15.0465C70.1936 14.7613 69.6614 14.4002 69.2052 13.9249C68.768 13.4497 68.4258 12.8604 68.1977 12.1951C67.9696 11.5298 67.8365 10.7885 67.8365 10.0091C67.8365 9.22973 67.9506 8.5074 68.1977 7.84209C68.4258 7.17677 68.768 6.60651 69.2052 6.11228C69.6424 5.63705 70.1936 5.25688 70.84 4.99075C71.4863 4.72463 72.2276 4.57255 73.045 4.57255C73.8624 4.57255 74.6037 4.70562 75.25 4.99075C75.8963 5.25688 76.4286 5.63705 76.8848 6.11228C77.322 6.5875 77.6641 7.17677 77.8922 7.84209C78.1203 8.5074 78.2534 9.22973 78.2534 10.0091C78.2534 10.8075 78.1394 11.5298 77.8922 12.1951C77.6451 12.8604 77.322 13.4307 76.8848 13.9249C76.4476 14.4002 75.8963 14.7803 75.25 15.0465C74.6037 15.3126 73.8814 15.4647 73.045 15.4647ZM73.045 13.6588C73.5392 13.6588 73.9954 13.5448 74.3566 13.3357C74.7368 13.1266 75.0219 12.8414 75.269 12.4993C75.5161 12.1571 75.6872 11.7579 75.8013 11.3397C75.9153 10.9025 75.9724 10.4653 75.9724 10.0091C75.9724 9.57189 75.9153 9.13469 75.8013 8.69749C75.6872 8.26028 75.5161 7.8801 75.269 7.53794C75.0219 7.19578 74.7178 6.92966 74.3566 6.72056C73.9764 6.51146 73.5392 6.39741 73.045 6.39741C72.5507 6.39741 72.0945 6.51146 71.7334 6.72056C71.3532 6.92966 71.0681 7.21479 70.8209 7.53794C70.5738 7.8801 70.4027 8.26028 70.2887 8.69749C70.1746 9.13469 70.1176 9.57189 70.1176 10.0091C70.1176 10.4653 70.1746 10.9025 70.2887 11.3397C70.4027 11.7769 70.5738 12.1571 70.8209 12.4993C71.0681 12.8414 71.3722 13.1266 71.7334 13.3357C72.1135 13.5638 72.5507 13.6588 73.045 13.6588ZM78.9377 4.85769H80.6675V1.74023H82.9486V4.83868H85.0016V6.53047H82.9486V12.0431C82.9486 12.2902 82.9676 12.4803 82.9866 12.6703C83.0056 12.8414 83.0627 12.9935 83.1197 13.1075C83.1957 13.2216 83.3098 13.3166 83.4428 13.3737C83.5949 13.4307 83.785 13.4687 84.0511 13.4687C84.2032 13.4687 84.3743 13.4687 84.5264 13.4497C84.6784 13.4307 84.8495 13.4117 85.0016 13.3737V15.1415C84.7545 15.1795 84.5073 15.1985 84.2602 15.2175C84.0131 15.2555 83.785 15.2556 83.5189 15.2556C82.9106 15.2556 82.4354 15.1985 82.0742 15.0845C81.713 14.9704 81.4279 14.7993 81.2188 14.5902C81.0097 14.3621 80.8766 14.096 80.8006 13.7729C80.7246 13.4497 80.6866 13.0505 80.6675 12.6323V6.54948H78.9377V4.81967V4.85769Z" fill="white"/>
</svg>
